<svg width="32" height="31" viewBox="0 0 32 31" fill="none" xmlns="http://www.w3.org/2000/svg">
<g id="eva:arrow-ios-upward-fill">
<path id="Vector" d="M8.29385 10.0001C8.59565 9.99946 8.88813 10.1046 9.12052 10.2971L16.0439 16.0838L22.9801 10.5038C23.1122 10.3965 23.2642 10.3164 23.4274 10.268C23.5906 10.2197 23.7618 10.2041 23.931 10.2221C24.1002 10.2401 24.2643 10.2914 24.4136 10.373C24.563 10.4546 24.6948 10.5649 24.8014 10.6976C24.9086 10.8297 24.9888 10.9817 25.0371 11.1449C25.0855 11.3081 25.1011 11.4792 25.0831 11.6485C25.0651 11.8177 25.0138 11.9817 24.9322 12.1311C24.8506 12.2804 24.7403 12.4122 24.6076 12.5188L16.8576 18.7576C16.6265 18.9475 16.3366 19.0514 16.0374 19.0514C15.7382 19.0514 15.4483 18.9475 15.2172 18.7576L7.46719 12.2992C7.3364 12.1908 7.22828 12.0576 7.14903 11.9073C7.06979 11.7571 7.02097 11.5926 7.00537 11.4234C6.98977 11.2543 7.0077 11.0837 7.05813 10.9214C7.10857 10.7592 7.19051 10.6085 7.29927 10.478C7.41946 10.3298 7.57099 10.2101 7.74296 10.1275C7.91493 10.0448 8.10307 10.0013 8.29385 10.0001Z" fill="#F7931E"/>
</g>
</svg>
